<svg version="1.1" xmlns="http://www.w3.org/2000/svg" xmlns:xlink="http://www.w3.org/1999/xlink" width="88px" height="88px" viewBox="0,0,256,256"><g fill="#000000" fill-rule="nonzero" stroke="none" stroke-width="1" stroke-linecap="butt" stroke-linejoin="miter" stroke-miterlimit="10" stroke-dasharray="" stroke-dashoffset="0" font-family="none" font-weight="none" font-size="none" text-anchor="none" style="mix-blend-mode: normal"><path d="M0,256v-256h256v256z" id="bgRectangle"></path></g><g fill="#ffffff" fill-rule="nonzero" stroke="none" stroke-width="1" stroke-linecap="butt" stroke-linejoin="miter" stroke-miterlimit="10" stroke-dasharray="" stroke-dashoffset="0" font-family="none" font-weight="none" font-size="none" text-anchor="none" style="mix-blend-mode: normal"><g transform="scale(2.90909,2.90909)"><path d="M43.99414,2c-0.1643,0.00052 -0.32594,0.04143 -0.4707,0.11914l-37,20c-0.31891,0.17944 -0.51829,0.51497 -0.52344,0.88086v42c-0.00063,0.36749 0.20036,0.70573 0.52344,0.88086l37,20c0.14649,0.07868 0.31028,0.11963 0.47656,0.11914c0.16561,-0.00468 0.32823,-0.04534 0.47656,-0.11914l37,-20c0.32308,-0.17513 0.52407,-0.51336 0.52344,-0.88086v-42c-0.00588,-0.36568 -0.20506,-0.70088 -0.52344,-0.88086l-37,-20c-0.14825,-0.07959 -0.31416,-0.12057 -0.48242,-0.11914zM44,4.13672l11.56641,6.25195l-34.89648,18.86328l-11.56641,-6.25195zM57.66992,11.52539l7.55664,4.08594l-34.89453,18.86328c-5.043,-2.7249 -3.33579,-1.80334 -7.55859,-4.08594zM67.33008,16.74805l11.56641,6.25195l-34.89648,18.86328l-11.56641,-6.25195zM8,24.67773l11.66992,6.30859v16.04297c-0.00062,0.32254 0.15438,0.62557 0.41626,0.81385c0.26188,0.18828 0.5985,0.23868 0.90405,0.13537l4.12305,-1.39062l4.40039,6.23828c0.25139,0.3554 0.70382,0.50734 1.11876,0.37572c0.41495,-0.13162 0.69707,-0.51657 0.69764,-0.95189v-14.96094l11.66992,6.30664v39.72656l-35,-18.91797zM80,24.67773v39.72656l-35,18.91797v-39.72656zM21.66992,32.06641c1.7376,0.9389 0.27106,0.14672 7.66016,4.14063v12.89063l-3.01367,-4.27148c-0.2547,-0.36206 -0.71701,-0.51378 -1.13672,-0.37305l-3.50977,1.18555zM10.99609,58.20508c-0.45784,0.00087 -0.85665,0.31247 -0.96824,0.7565c-0.11159,0.44404 0.09254,0.90715 0.49558,1.12436l13.07422,7.06641c0.48595,0.2632 1.09325,0.08263 1.35645,-0.40332c0.2632,-0.48595 0.08263,-1.09325 -0.40332,-1.35645h-0.00195l-13.07227,-7.06641c-0.14747,-0.08002 -0.31269,-0.12166 -0.48047,-0.12109zM10.99609,61.61523c-0.45748,0.00176 -0.85547,0.31365 -0.96653,0.75745c-0.11106,0.4438 0.0931,0.90638 0.49583,1.12341l4.74414,2.56445c0.31502,0.17756 0.70135,0.17128 1.01043,-0.01642c0.30908,-0.1877 0.49281,-0.52761 0.48052,-0.88901c-0.01228,-0.36141 -0.21866,-0.68805 -0.53978,-0.85433l-4.74414,-2.56445c-0.14747,-0.08002 -0.31269,-0.12166 -0.48047,-0.12109z"></path></g></g></svg>