<svg version="1.1" xmlns="http://www.w3.org/2000/svg" xmlns:xlink="http://www.w3.org/1999/xlink" width="48px" height="48px" viewBox="0,0,256,256"><g fill="#000000" fill-rule="nonzero" stroke="none" stroke-width="1" stroke-linecap="butt" stroke-linejoin="miter" stroke-miterlimit="10" stroke-dasharray="" stroke-dashoffset="0" font-family="none" font-weight="none" font-size="none" text-anchor="none" style="mix-blend-mode: normal"><path d="M0,256v-256h256v256z" id="bgRectangle"></path></g><g fill="#ffffff" fill-rule="nonzero" stroke="none" stroke-width="1" stroke-linecap="butt" stroke-linejoin="miter" stroke-miterlimit="10" stroke-dasharray="" stroke-dashoffset="0" font-family="none" font-weight="none" font-size="none" text-anchor="none" style="mix-blend-mode: normal"><g transform="scale(5.33333,5.33333)"><path d="M24,4c-11.02793,0 -20,8.97207 -20,20c0,11.02793 8.97207,20 20,20c11.02793,0 20,-8.97207 20,-20c0,-11.02793 -8.97207,-20 -20,-20zM24,7c9.40662,0 17,7.59339 17,17c0,9.40661 -7.59338,17 -17,17c-9.40661,0 -17,-7.59339 -17,-17c0,-9.40661 7.59339,-17 17,-17zM24,12c-1.875,0 -3.47118,0.75713 -4.49609,1.91016c-1.02491,1.15302 -1.50391,2.63151 -1.50391,4.08984c0,1.45833 0.479,2.93682 1.50391,4.08984c1.02491,1.15302 2.62109,1.91016 4.49609,1.91016c1.875,0 3.47118,-0.75713 4.49609,-1.91016c1.02491,-1.15302 1.50391,-2.63151 1.50391,-4.08984c0,-1.45833 -0.479,-2.93682 -1.50391,-4.08984c-1.02491,-1.15302 -2.62109,-1.91016 -4.49609,-1.91016zM24,15c1.125,0 1.77882,0.36787 2.25391,0.90234c0.47509,0.53448 0.74609,1.30599 0.74609,2.09766c0,0.79167 -0.271,1.56318 -0.74609,2.09766c-0.47509,0.53448 -1.12891,0.90234 -2.25391,0.90234c-1.125,0 -1.77882,-0.36787 -2.25391,-0.90234c-0.47509,-0.53448 -0.74609,-1.30599 -0.74609,-2.09766c0,-0.79167 0.271,-1.56318 0.74609,-2.09766c0.47509,-0.53448 1.12891,-0.90234 2.25391,-0.90234zM17.25977,26c-1.7815,0 -3.25977,1.47707 -3.25977,3.25977v1.08203c0,1.98796 1.25651,3.71561 3.04688,4.85742c1.79036,1.14181 4.1824,1.80273 6.95313,1.80273c2.77072,0 5.16276,-0.66092 6.95313,-1.80273c1.79036,-1.14181 3.04688,-2.86946 3.04688,-4.85742v-1.08203c0,-1.7815 -1.47707,-3.25977 -3.25977,-3.25977zM17.25977,29h13.48047c0.1613,0 0.25977,0.09927 0.25977,0.25977v1.08203c0,0.71204 -0.46427,1.56544 -1.66016,2.32813c-1.19589,0.76269 -3.05557,1.33203 -5.33984,1.33203c-2.28428,0 -4.14395,-0.56934 -5.33984,-1.33203c-1.19589,-0.76269 -1.66016,-1.61609 -1.66016,-2.32812v-1.08203c0,-0.1613 0.09927,-0.25977 0.25977,-0.25977z"></path></g></g></svg>