<svg version="1.1" xmlns="http://www.w3.org/2000/svg" xmlns:xlink="http://www.w3.org/1999/xlink" width="26px" height="26px" viewBox="0,0,256,256"><g fill="transparent" fill-rule="nonzero" stroke="none" stroke-width="1" stroke-linecap="butt" stroke-linejoin="miter" stroke-miterlimit="10" stroke-dasharray="" stroke-dashoffset="0" font-family="none" font-weight="none" font-size="none" text-anchor="none" style="mix-blend-mode: normal"><path d="M0,256v-256h256v256z" id="bgRectangle"></path></g><g fill="#fafafa" fill-rule="nonzero" stroke="none" stroke-width="1" stroke-linecap="butt" stroke-linejoin="miter" stroke-miterlimit="10" stroke-dasharray="" stroke-dashoffset="0" font-family="none" font-weight="none" font-size="none" text-anchor="none" style="mix-blend-mode: normal"><g transform="scale(9.84615,9.84615)"><path d="M8.125,3.875c-1.72656,0 -3.29687,0.59766 -4.40625,1.6875c-1.10937,1.08984 -1.71875,2.64844 -1.71875,4.4375c0,3.02734 1.85547,5.28516 3.96875,7.1875c2.11328,1.90234 4.57813,3.58594 6.25,5.5625c0.18359,0.23047 0.45703,0.36719 0.75,0.375h0.0625c0.29297,-0.00781 0.56641,-0.14453 0.75,-0.375c1.67188,-1.97656 4.13672,-3.66016 6.25,-5.5625c2.11328,-1.90234 3.96875,-4.16016 3.96875,-7.1875c0,-1.78906 -0.64062,-3.34766 -1.75,-4.4375c-1.10937,-1.08984 -2.64844,-1.6875 -4.375,-1.6875c-1.71094,0 -3.11328,0.93359 -4.09375,1.78125c-0.48047,0.41406 -0.50391,0.52734 -0.78125,0.84375c-0.27344,-0.31641 -0.30078,-0.42969 -0.78125,-0.84375c-0.97656,-0.84766 -2.38281,-1.78125 -4.09375,-1.78125zM8.125,5.875c0.94141,0 1.99219,0.62891 2.78125,1.3125c0.78906,0.68359 1.28125,1.34375 1.28125,1.34375c0.1875,0.26172 0.49219,0.41797 0.8125,0.41797c0.32031,0 0.625,-0.15625 0.8125,-0.41797c0,0 0.48828,-0.66016 1.28125,-1.34375c0.79297,-0.68359 1.83594,-1.3125 2.78125,-1.3125c1.28516,0 2.29688,0.4375 3,1.125c0.70313,0.6875 1.125,1.66016 1.125,3c0,2.21484 -1.33984,3.91016 -3.3125,5.6875c-1.74609,1.57422 -3.87891,3.1875 -5.6875,5.09375c-1.8125,-1.91406 -3.9375,-3.51953 -5.6875,-5.09375c-1.97266,-1.77734 -3.3125,-3.47266 -3.3125,-5.6875c0,-1.33984 0.42188,-2.3125 1.125,-3c0.70313,-0.6875 1.71094,-1.125 3,-1.125z"></path></g></g></svg>